<svg xmlns="http://www.w3.org/2000/svg" viewBox="0 0 204.63 190.95">
  <g fill="currentColor">
    <rect x="74.94" y="24.03" width="54.75" height="10.94" rx="5.47" ry="5.47" transform="translate(131.82 -72.81) rotate(90)"/>
    <rect x="74.94" y="155.98" width="54.75" height="10.94" rx="5.47" ry="5.47" transform="translate(263.76 59.13) rotate(90)"/>
    <rect x="140.91" y="90.01" width="54.75" height="10.94" rx="5.47" ry="5.47" transform="translate(336.57 190.95) rotate(180)"/>
    <rect x="8.97" y="90.01" width="54.75" height="10.94" rx="5.47" ry="5.47" transform="translate(72.69 190.95) rotate(-180)"/>
    <rect x="125.52" y="131.29" width="36.17" height="10.94" rx="5.47" ry="5.47" transform="translate(148.44 335.01) rotate(-135)"/>
    <rect x="44.38" y="49.31" width="34.48" height="10.94" rx="5.47" ry="5.47" transform="translate(66.46 137.1) rotate(-135)"/>
    <rect x="44.14" y="131.29" width="36.17" height="10.94" rx="5.47" ry="5.47" transform="translate(-78.48 84.06) rotate(-45)"/>
    <rect x="126.96" y="49.31" width="34.48" height="10.94" rx="5.47" ry="5.47" transform="translate(3.5 118.01) rotate(-45)"/>
    <path d="M102.32,67.23c-15.59,0-28.23,12.64-28.23,28.23s12.64,28.23,28.23,28.23,28.23-12.64,28.23-28.23-12.64-28.23-28.23-28.23ZM102.32,115.04c-10.81,0-19.57-8.76-19.57-19.57s8.76-19.57,19.57-19.57,19.57,8.76,19.57,19.57-8.76,19.57-19.57,19.57Z"/>
  </g>
</svg>
