<svg xmlns="http://www.w3.org/2000/svg" viewBox="0 0 204.63 190.95">
  <path fill="currentColor" d="M158.99,144.65c14.78,0,12.06.02,26.5-.01,3.48,0,7.29,0,7.4,4.53.12,4.97-3.92,4.92-7.59,4.92-66.81-.01-99.29-.02-166.11,0-3.47,0-7.3.02-7.43-4.5-.15-4.98,3.88-4.96,7.55-4.95,14.45.03,11.73.01,26.83.01,2.84-18.98,11.72-34.12,28.63-43.79,10.29-5.88,21.39-8.36,33.23-7.03,27.14,3.05,44.56,20.27,50.99,50.82ZM56.07,144.27h92.9c-1.76-24.96-22.55-43.53-47.84-43.09-23.82.42-44.13,19.77-45.05,43.09Z"/>
  <rect fill="currentColor" x="88.09" y="45.92" width="28.45" height="10.34" rx="5.17" ry="5.17" transform="translate(153.41 -51.23) rotate(90)"/>
  <rect fill="currentColor" x="153.88" y="75.48" width="28.45" height="10.34" rx="5.17" ry="5.17" transform="translate(344.01 18.81) rotate(135)"/>
  <rect fill="currentColor" x="23.41" y="75.48" width="28.45" height="10.34" rx="5.17" ry="5.17" transform="translate(68.05 -2.99) rotate(45)"/>
</svg>
