<svg xmlns="http://www.w3.org/2000/svg" viewBox="0 0 204.63 190.95">
  <path fill="currentColor" d="M59.91,156.16c-30.49-30.94-33.07-81.21-5.66-114.63C81.03,8.86,125.92.02,163,20.08c2.75,1.49,4.71,3.42,4.08,6.82-.61,3.29-3.1,4.2-6.07,4.63-34.09,4.99-57.45,33.95-55.15,68.28,1.96,29.16,25.39,54.18,54.35,58.02,1.32.17,2.64.28,3.95.53,2.74.52,4.73,1.99,5.15,4.87.39,2.63-1.03,4.32-3.27,5.58-31.4,17.69-62.39,16.93-92.83-2.27-4.73-2.99-8.88-6.9-13.3-10.39ZM145.35,166.47c-31.6-13.33-50.16-36.24-50.53-70.64-.36-34.23,17.65-57.54,48.57-71.5-26.39-8.66-61.1-1.49-82.32,27.57-19.75,27.06-18.64,64.71,3.13,91.24,21.48,26.17,55.48,32.12,81.15,23.33Z"/>
</svg>
